/* XPM */
const char*bag[]={
"24 24 9 1",
"c c #a0a0a0",
"d c #000080",
"b c #c05800",
"a c #c0c0ff",
"# c #000000",
"f c #0000c0",
"e c #0000ff",
". c None",
"g c #c00000",
"........................",
"........................",
"........................",
".......#######..........",
".....##aaaaaaa##........",
"....#aabbbbbbbaa#.......",
"....###bbbbbbb###.......",
"....#aa#c#####dd#.......",
"....#aec#ffffffd###.....",
"...#g#c#efffffdd#ee#....",
"..#gc##efffffffd#..e#...",
".#gcggc#efffffdd#..e#...",
"#gcg#gc##ffffffd#..e#...",
"#cg###gc#fffffdd#..e#...",
".#cg#gc#fffffffd#..e#...",
"..#cgc#eefffffdd#..e#...",
"...#c#eefffffffd#ee#....",
"....#aaeefffffdd###.....",
"....#aeefffffffd#.......",
"....#aaeefffffdd#.......",
".....##effffff##........",
".......#######..........",
"........................",
"........................"};
