/* XPM */
static char*tea1[]={
"16 16 7 1",
"c c #000080",
"b c #c05800",
"a c #c0c0ff",
"# c #000000",
"e c #0000c0",
"d c #0000ff",
". c None",
"...######.......",
".##aaaaaa##.....",
"#aabbbbbbaa#....",
"###bbbbbb###....",
"#aa######cc#....",
"#addeeeeeec###..",
"#aaddeeeecc#dd#.",
"#addeeeeeec#..d#",
"#aaddeeeecc#..d#",
"#addeeeeeec#..d#",
"#aaddeeeecc#..d#",
"#addeeeeeec#ee#.",
"#aaddeeeecc###..",
"#addeeeeeec#....",
".##deeeee##.....",
"...######......."};
