/* XPM */
const char*mug[]={
"24 24 7 1",
"c c #000080",
"a c #c0c0ff",
"# c #000000",
"e c #0000c0",
"b c #ffdca8",
"d c #0000ff",
". c None",
"........................",
"........................",
"........................",
".......#######..........",
".....##aaaaaaa##........",
"....#aabbbbbbbaa#.......",
"....###bbbbbbb###.......",
"....#aa#######cc#.......",
"....#addeeeeeeec###.....",
"....#aaddeeeeecc#dd#....",
"....#addeeeeeeec#..d#...",
"....#aaddeeeeecc#..d#...",
"....#addeeeeeeec#..d#...",
"....#aaddeeeeecc#..d#...",
"....#addeeeeeeec#..d#...",
"....#aaddeeeeecc#..d#...",
"....#addeeeeeeec#ee#....",
"....#aaddeeeeecc###.....",
"....#addeeeeeeec#.......",
"....#aaddeeeeecc#.......",
".....##deeeeee##........",
".......#######..........",
"........................",
"........................"};
