/* XPM */
const char*tea2[]={
"24 24 8 1",
"d c #000080",
"c c #c05800",
"b c #c0c0ff",
"a c #000000",
"f c #0000c0",
"e c #0000ff",
". c None",
"# c #ffffff",
".......#######..........",
"......##.....##.........",
"........#####...........",
".......a#aaa#a..........",
".....aabbbbbbbaa........",
"....abbcc###ccbba.......",
"....aaacccccccaaa.......",
"....abbaaaaaaadda.......",
"....abeefffffffdaaa.....",
"....abbeefffffddaeea....",
"....abeefffffffda..ea...",
"....abbeefffffdda..ea...",
"....abeefffffffda..ea...",
"....abbeefffffdda..ea...",
"....abeefffffffda..ea...",
"....abbeefffffdda..ea...",
"....abeefffffffdaffa....",
"....abbeefffffddaaa.....",
"....abeefffffffda.......",
"....abbeefffffdda.......",
".....aaeffffffaa........",
".......aaaaaaa..........",
"........................",
"........................"};
